<svg xmlns="http://www.w3.org/2000/svg" width="800" height="600" viewBox="0 0 800 600" role="img" aria-label="A cute pelican riding a bicycle by a lakeside windmill">
  <style>
    .round{stroke-linecap:round;stroke-linejoin:round}
    .soft{stroke-linecap:round;stroke-linejoin:round;stroke-width:4}
    .code{font:700 22px Verdana,Arial,sans-serif;letter-spacing:2px}
  </style>

  <defs>
    <linearGradient id="sky" x1="0" y1="0" x2="0" y2="1">
      <stop offset="0" stop-color="#82d8ff"/>
      <stop offset=".62" stop-color="#c9f2ff"/>
      <stop offset="1" stop-color="#fff6d8"/>
    </linearGradient>
    <linearGradient id="lake" x1="0" y1="0" x2="0" y2="1">
      <stop offset="0" stop-color="#65d3ee"/>
      <stop offset="1" stop-color="#1f91c3"/>
    </linearGradient>
    <linearGradient id="grass" x1="0" y1="0" x2="0" y2="1">
      <stop offset="0" stop-color="#9be86d"/>
      <stop offset="1" stop-color="#54b84a"/>
    </linearGradient>
    <radialGradient id="sunG" cx=".35" cy=".35" r=".75">
      <stop offset="0" stop-color="#fffbd1"/>
      <stop offset=".55" stop-color="#ffd95a"/>
      <stop offset="1" stop-color="#ffab2e"/>
    </radialGradient>

    <g id="wheel">
      <circle r="50" fill="#25333e"/>
      <circle r="42" fill="#fbfeff" stroke="#b7ceda" stroke-width="5"/>
      <path d="M0 -36V36M-36 0H36M-25.5 -25.5L25.5 25.5M25.5 -25.5L-25.5 25.5" stroke="#9fb9c7" stroke-width="4" class="round"/>
      <circle r="7" fill="#ff7b2a" stroke="#b65012" stroke-width="3"/>
      <circle cx="0" cy="-34" r="4" fill="#e94444"/>
    </g>

    <path id="blade" d="M8 -8 L78 -34 C92 -31 96 -18 84 -11 L17 10 Z" fill="#fffbea" stroke="#b5793d" stroke-width="3" class="round"/>

    <path id="foot" d="M-16 -4 C-7 -16 15 -15 25 -5 L33 1 C24 8 9 11 -7 10 C-21 9 -24 2 -16 -4 Z" fill="#ff8d1e" stroke="#c65d13" stroke-width="3" class="round"/>
  </defs>

  <rect width="800" height="600" fill="url(#sky)"/>

  <g transform="translate(695 88)">
    <circle r="42" fill="url(#sunG)"/>
    <g stroke="#ffcf4d" stroke-width="7" class="round">
      <animateTransform attributeName="transform" type="rotate" from="0" to="360" dur="18s" repeatCount="indefinite" additive="sum"/>
      <path d="M0 -62V-48M0 48V62M-62 0H-48M48 0H62M-44 -44L-34 -34M34 34L44 44M44 -44L34 -34M-34 34L-44 44"/>
    </g>
  </g>

  <g fill="#ffffff" opacity=".92">
    <g>
      <animateTransform attributeName="transform" type="translate" values="0 0;38 -5;0 0" dur="13s" repeatCount="indefinite"/>
      <ellipse cx="250" cy="92" rx="48" ry="24"/>
      <ellipse cx="286" cy="80" rx="36" ry="28"/>
      <ellipse cx="323" cy="96" rx="44" ry="22"/>
    </g>
    <g opacity=".82">
      <animateTransform attributeName="transform" type="translate" values="0 0;-30 4;0 0" dur="17s" repeatCount="indefinite"/>
      <ellipse cx="520" cy="145" rx="42" ry="20"/>
      <ellipse cx="555" cy="132" rx="32" ry="25"/>
      <ellipse cx="590" cy="148" rx="38" ry="18"/>
    </g>
  </g>

  <path d="M0 330 C110 295 205 318 300 292 C430 260 560 292 800 252 L800 350 L0 350 Z" fill="#8ed486" opacity=".75"/>
  <path d="M38 356 C88 330 176 330 224 358 C198 377 86 381 38 366 Z" fill="#79c85f"/>
  <rect y="342" width="800" height="120" fill="url(#lake)"/>

  <g fill="none" stroke="#d9fbff" stroke-width="5" stroke-dasharray="18 16" opacity=".75" class="round">
    <path d="M8 382 C70 368 126 398 188 383 S318 368 382 383 S510 398 574 382 S700 367 792 386">
      <animate attributeName="stroke-dashoffset" from="0" to="68" dur="2.6s" repeatCount="indefinite"/>
    </path>
    <path d="M0 423 C64 409 120 439 184 424 S320 409 386 424 S520 439 586 423 S716 408 800 426" opacity=".72">
      <animate attributeName="stroke-dashoffset" from="12" to="80" dur="3.2s" repeatCount="indefinite"/>
    </path>
    <path d="M30 451 C94 438 148 466 214 451 S344 437 410 452 S540 467 610 451 S736 438 806 454" opacity=".58">
      <animate attributeName="stroke-dashoffset" from="30" to="98" dur="3.8s" repeatCount="indefinite"/>
    </path>
  </g>

  <g>
    <path d="M112 358 L128 228 L144 358 Z" fill="#f4d49a" stroke="#9c6c38" stroke-width="5" class="round"/>
    <path d="M120 286 L136 286 M124 318 L140 318" stroke="#b9824b" stroke-width="4" class="round"/>
    <path d="M104 358 C120 342 150 342 166 358 C151 369 119 369 104 358 Z" fill="#6fbf55"/>
    <g transform="translate(128 224)">
      <g>
        <animateTransform attributeName="transform" type="rotate" from="0" to="360" dur="5.5s" repeatCount="indefinite" additive="sum"/>
        <use href="#blade"/>
        <use href="#blade" transform="rotate(90)"/>
        <use href="#blade" transform="rotate(180)"/>
        <use href="#blade" transform="rotate(270)"/>
      </g>
      <circle r="13" fill="#e8732a" stroke="#9d5719" stroke-width="4"/>
      <circle r="4" fill="#fff4c2"/>
    </g>
  </g>

  <rect y="462" width="800" height="138" fill="url(#grass)"/>
  <path d="M0 508 C150 486 256 522 386 500 C520 478 648 522 800 496 L800 600 L0 600 Z" fill="#dcbf78"/>
  <path d="M0 533 C150 512 256 548 386 526 C520 504 648 548 800 522" fill="none" stroke="#c99d55" stroke-width="7" stroke-dasharray="20 18" opacity=".65" class="round"/>

  <g stroke="#2f7d3b" stroke-width="5" class="round">
    <path d="M618 514 C614 486 626 470 616 446"/>
    <path d="M640 520 C646 492 634 478 646 452"/>
    <path d="M60 512 C66 484 54 470 66 446"/>
  </g>
  <g fill="#8a5a2b">
    <ellipse cx="616" cy="444" rx="7" ry="16"/>
    <ellipse cx="646" cy="450" rx="7" ry="16"/>
    <ellipse cx="66" cy="444" rx="7" ry="16"/>
  </g>

  <ellipse cx="388" cy="532" rx="178" ry="18" fill="#26734a" opacity=".22"/>

  <g transform="translate(255 476)">
    <animateTransform attributeName="transform" type="rotate" from="0" to="360" dur=".72s" repeatCount="indefinite" additive="sum"/>
    <use href="#wheel"/>
  </g>
  <g transform="translate(515 476)">
    <animateTransform attributeName="transform" type="rotate" from="0" to="360" dur=".72s" repeatCount="indefinite" additive="sum"/>
    <use href="#wheel"/>
  </g>

  <g fill="none" stroke="#2a6fc2" stroke-width="9" class="round">
    <path d="M255 476 L388 479 L333 378 L476 382 L515 476"/>
    <path d="M388 479 L476 382"/>
    <path d="M333 378 L388 479"/>
    <path d="M476 382 L515 476"/>
    <path d="M255 476 L333 378" opacity=".92"/>
  </g>
  <path d="M315 371 C330 360 354 360 368 371 C356 383 327 384 315 371 Z" fill="#263038"/>
  <path d="M470 381 C489 361 515 360 534 372 M505 370 C519 368 533 375 540 386" fill="none" stroke="#263038" stroke-width="8" class="round"/>
  <circle cx="388" cy="479" r="25" fill="#fff3cf" stroke="#d47717" stroke-width="6"/>
  <circle cx="255" cy="476" r="13" fill="#cfe6ef" stroke="#617e8c" stroke-width="5"/>

  <g transform="translate(388 479)">
    <g stroke="#e66f17" stroke-width="8" class="round">
      <animateTransform attributeName="transform" type="rotate" from="25" to="385" dur="1.15s" repeatCount="indefinite" additive="sum"/>
      <path d="M0 0 L44 0 M0 0 L-44 0"/>
      <g transform="translate(-44 0)" opacity=".78">
        <animateTransform attributeName="transform" type="rotate" from="-25" to="-385" dur="1.15s" repeatCount="indefinite" additive="sum"/>
        <rect x="-13" y="-6" width="26" height="12" rx="4" fill="#33424c"/>
        <use href="#foot" transform="scale(.86)" fill="#e97816"/>
      </g>
      <g transform="translate(44 0)">
        <animateTransform attributeName="transform" type="rotate" from="-25" to="-385" dur="1.15s" repeatCount="indefinite" additive="sum"/>
        <rect x="-13" y="-6" width="26" height="12" rx="4" fill="#33424c"/>
        <use href="#foot"/>
        <path d="M19 -4 L31 -10 M23 1 L36 0 M19 6 L31 12" stroke="#c65d13" stroke-width="3" class="round"/>
      </g>
    </g>
    <circle r="7" fill="#7c4a18"/>
  </g>

  <g id="pelican">
    <animateTransform attributeName="transform" type="translate" values="0 0;0 -4;0 0" dur="1.15s" repeatCount="indefinite"/>
    <path d="M350 390 C364 426 374 452 384 470 M392 392 C398 424 398 448 396 470" fill="none" stroke="#f57f17" stroke-width="10" class="round"/>
    <path d="M316 342 C286 326 264 334 248 354 C278 356 300 370 320 388 Z" fill="#f7fbfd" stroke="#9fb7c2" stroke-width="4" class="round"/>
    <g transform="translate(396 334)" opacity=".82">
      <animateTransform attributeName="transform" type="rotate" values="8;-7;8" dur="1.7s" repeatCount="indefinite" additive="sum"/>
      <path d="M0 -10 C44 -45 98 -48 130 -20 C86 -18 44 3 7 26 Z" fill="#eaf4f7" stroke="#8fa9b5" stroke-width="4" class="round"/>
    </g>
    <ellipse cx="366" cy="341" rx="62" ry="52" fill="#ffffff" stroke="#a9c2cc" stroke-width="5"/>
    <path d="M398 318 C416 292 420 274 438 260" fill="none" stroke="#ffffff" stroke-width="30" class="round"/>
    <circle cx="437" cy="282" r="34" fill="#ffffff" stroke="#a9c2cc" stroke-width="5"/>
    <path d="M452 267 C505 244 556 250 596 274 C548 279 501 284 457 287 Z" fill="#ff9b25" stroke="#c95f12" stroke-width="5" class="round"/>
    <path d="M456 287 C516 290 554 316 566 347 C521 365 470 346 436 320 Z" fill="#ffb23d" stroke="#d27317" stroke-width="5" class="round"/>
    <path d="M470 305 C500 312 528 328 546 344" fill="none" stroke="#dd7a19" stroke-width="4" class="round" opacity=".7"/>
    <circle cx="431" cy="273" r="10" fill="#fff"/>
    <circle cx="434" cy="274" r="5" fill="#17303d"/>
    <circle cx="436" cy="272" r="1.8" fill="#fff"/>
    <g transform="translate(350 343)">
      <animateTransform attributeName="transform" type="rotate" values="-8;10;-8" dur="1.55s" repeatCount="indefinite" additive="sum"/>
      <path d="M0 -14 C-78 -58 -142 -51 -170 -8 C-118 -18 -66 4 2 32 Z" fill="#f4fafd" stroke="#8fa9b5" stroke-width="5" class="round"/>
      <path d="M-34 -13 C-78 -36 -116 -35 -142 -12" fill="none" stroke="#c8dde7" stroke-width="5" class="round"/>
    </g>
  </g>

  <g fill="none" stroke="#276f45" stroke-width="4" class="round" opacity=".9">
    <path d="M724 531 C730 505 716 492 730 468"/>
    <path d="M748 535 C742 508 756 494 742 470"/>
    <path d="M700 528 C706 506 694 496 706 476"/>
  </g>
  <g fill="#ffd34d">
    <circle cx="732" cy="466" r="6"/><circle cx="742" cy="470" r="6"/><circle cx="706" cy="474" r="6"/>
  </g>

  <rect x="646" y="547" width="142" height="40" rx="11" fill="#ffffff" opacity=".88" stroke="#245b73" stroke-width="3"/>
  <text x="778" y="574" text-anchor="end" class="code" fill="#174a5e">RBPKKA</text>
</svg>
